<svg width="2427" height="2355" viewBox="0 0 2427 2355" fill="none" xmlns="http://www.w3.org/2000/svg">
<g opacity="0.03">
<path opacity="0.0526316" d="M2237.83 1900.65C2186.64 1968.76 2023.01 2082.74 1778.07 1993.75C1471.89 1882.52 1353.47 1587.67 1080.2 1434.78C878.507 1321.94 336.548 1152.56 24.9134 1339.73" stroke="#041A11" stroke-width="4"/>
<path opacity="0.105263" d="M2288.33 1757.86C2244.54 1830.95 2093.72 1961.41 1840.82 1898.51C1524.69 1819.89 1376.1 1539.03 1088.34 1415.55C875.96 1324.41 319.265 1212.61 28.9015 1431.32" stroke="#041A11" stroke-width="4"/>
<path opacity="0.157895" d="M2326.48 1613.15C2290.56 1690.41 2154.21 1835.92 1896.12 1799.8C1573.5 1754.66 1396.37 1490.87 1097.28 1398.14C876.537 1329.7 311.205 1276.7 45.2941 1524.57" stroke="#041A11" stroke-width="4"/>
<path opacity="0.210526" d="M2352.16 1467.8C2324.51 1548.4 2204.12 1707.36 1943.66 1698.42C1618.09 1687.25 1414.36 1443.42 1107.22 1382.46C880.528 1337.47 312.753 1343.86 74.2084 1618.16" stroke="#041A11" stroke-width="4"/>
<path opacity="0.263158" d="M2365.34 1323.14C2346.27 1406.19 2243.15 1576.87 1983.19 1595.2C1658.24 1618.12 1430.13 1396.92 1118.3 1368.4C888.15 1347.35 324.153 1413.05 115.588 1710.79" stroke="#041A11" stroke-width="4"/>
<path opacity="0.315789" d="M2366.19 1180.47C2355.91 1265.06 2271.2 1445.58 2014.58 1490.98C1693.8 1547.74 1443.82 1351.6 1130.72 1355.83C899.628 1358.96 345.588 1483.25 169.287 1801.16" stroke="#041A11" stroke-width="4"/>
<path opacity="0.368421" d="M2354.98 1041.06C2353.59 1126.25 2288.21 1314.64 2037.74 1386.62C1724.66 1476.6 1455.54 1307.66 1144.6 1344.6C915.102 1371.86 377.089 1553.39 234.985 1887.98" stroke="#041A11" stroke-width="4"/>
<path opacity="0.421053" d="M2332.11 906.152C2339.64 991.026 2294.31 1185.22 2052.73 1282.98C1750.77 1405.2 1465.47 1265.31 1160.09 1334.55C934.7 1385.65 418.609 1622.42 312.258 1970.04" stroke="#041A11" stroke-width="4"/>
<path opacity="0.473684" d="M2298.11 776.946C2314.47 860.567 2289.69 1058.43 2059.66 1180.92C1772.12 1334.02 1473.77 1224.73 1177.3 1325.51C958.481 1399.89 469.966 1689.31 400.534 2046.14" stroke="#041A11" stroke-width="4"/>
<path opacity="0.526316" d="M2253.65 654.57C2278.67 736.024 2274.7 935.395 2058.73 1081.25C1788.77 1263.58 1480.63 1186.07 1196.32 1317.28C986.475 1414.13 530.888 1753.03 499.135 2115.16" stroke="#041A11" stroke-width="4"/>
<path opacity="0.578947" d="M2199.5 540.079C2232.89 618.472 2249.79 817.167 2050.25 984.8C1800.83 1194.34 1486.27 1149.47 1217.23 1309.68C1018.66 1427.94 600.997 1812.6 607.271 2176.06" stroke="#041A11" stroke-width="4"/>
<path opacity="0.631579" d="M2136.53 434.45C2177.93 508.924 2215.5 704.764 2034.58 892.336C1808.43 1126.8 1490.9 1115.05 1240.09 1302.51C1054.97 1440.87 679.797 1867.09 724.029 2227.91" stroke="#041A11" stroke-width="4"/>
<path opacity="0.684211" d="M2065.72 338.55C2114.67 408.288 2172.51 599.128 2012.19 804.585C1811.78 1061.41 1494.77 1082.91 1264.92 1295.56C1095.28 1452.52 766.711 1915.61 848.417 2269.83" stroke="#041A11" stroke-width="4"/>
<path opacity="0.736842" d="M1988.13 253.145C2044.11 317.384 2121.57 501.133 1983.6 722.223C1811.14 998.585 1498.11 1053.11 1291.75 1288.62C1139.44 1462.45 861.085 1957.35 979.369 2301.09" stroke="#041A11" stroke-width="4"/>
<path opacity="0.789474" d="M1904.88 178.892C1967.27 236.927 2063.52 411.573 1949.41 645.873C1806.78 938.748 1501.17 1025.7 1320.56 1281.49C1187.25 1470.28 962.151 1991.57 1115.72 2321.06" stroke="#041A11" stroke-width="4"/>
<path opacity="0.842105" d="M1817.19 116.315C1885.3 167.511 1999.27 331.139 1910.29 576.082C1799.05 882.262 1504.2 1000.68 1351.32 1273.95C1238.48 1475.64 1069.1 2017.6 1256.26 2329.24" stroke="#041A11" stroke-width="4"/>
<path opacity="0.894737" d="M1726.29 65.8172C1799.38 109.613 1929.84 260.431 1866.94 513.334C1788.32 829.464 1507.46 978.052 1383.98 1265.81C1292.84 1478.19 1181.04 2034.88 1399.75 2325.25" stroke="#041A11" stroke-width="4"/>
<path opacity="0.947368" d="M1633.46 27.6678C1710.73 63.5837 1856.24 199.939 1820.12 458.031C1774.98 780.647 1511.19 957.78 1418.46 1256.86C1350.02 1477.61 1297.02 2042.94 1544.89 2308.85" stroke="#041A11" stroke-width="4"/>
<path d="M1540.01 2.00006C1620.61 29.6426 1779.57 150.041 1770.63 410.495C1759.46 736.062 1515.63 939.798 1454.67 1246.94C1409.68 1473.63 1416.07 2041.4 1690.37 2279.95" stroke="#041A11" stroke-width="4"/>
</g>
</svg>
